<mxfile host="65bd71144e">
    <diagram id="5T_v1ZaapwJAgMIV7yHQ" name="第 1 页">
        <mxGraphModel dx="569" dy="478" grid="0" gridSize="10" guides="1" tooltips="1" connect="1" arrows="1" fold="1" page="1" pageScale="1" pageWidth="827" pageHeight="1169" background="#ffffff" math="0" shadow="0">
            <root>
                <mxCell id="0"/>
                <mxCell id="1" parent="0"/>
                <mxCell id="2" value="&lt;span style=&quot;font-size: 25px&quot;&gt;&lt;b&gt;日常事务&lt;/b&gt;&lt;/span&gt;" style="ellipse;whiteSpace=wrap;html=1;aspect=fixed;labelBackgroundColor=#CCFFFF;fillColor=#CCFFFF;fontColor=#000000;" vertex="1" parent="1">
                    <mxGeometry x="308" y="569" width="124" height="124" as="geometry"/>
                </mxCell>
                <mxCell id="3" value="" style="endArrow=none;html=1;fontSize=25;fontColor=#000000;strokeWidth=7;strokeColor=#99FFFF;" edge="1" parent="1" target="4">
                    <mxGeometry width="50" height="50" relative="1" as="geometry">
                        <mxPoint x="369.5" y="569" as="sourcePoint"/>
                        <mxPoint x="369.5" y="511" as="targetPoint"/>
                    </mxGeometry>
                </mxCell>
                <mxCell id="4" value="&lt;font style=&quot;font-size: 20px&quot;&gt;事务ID&lt;/font&gt;" style="rounded=0;whiteSpace=wrap;html=1;labelBackgroundColor=#CCFFFF;fontSize=25;fontColor=#000000;fillColor=#CCFFFF;" vertex="1" parent="1">
                    <mxGeometry x="322.5" y="455.5" width="95" height="39" as="geometry"/>
                </mxCell>
                <mxCell id="5" value="&lt;font style=&quot;font-size: 20px&quot;&gt;状态&lt;/font&gt;" style="rounded=0;whiteSpace=wrap;html=1;labelBackgroundColor=#CCFFFF;fontSize=25;fontColor=#000000;fillColor=#CCFFFF;" vertex="1" parent="1">
                    <mxGeometry x="485" y="652" width="95" height="39" as="geometry"/>
                </mxCell>
                <mxCell id="6" value="&lt;span style=&quot;font-size: 20px&quot;&gt;时间&lt;/span&gt;" style="rounded=0;whiteSpace=wrap;html=1;labelBackgroundColor=#CCFFFF;fontSize=25;fontColor=#000000;fillColor=#CCFFFF;" vertex="1" parent="1">
                    <mxGeometry x="485" y="550.5" width="95" height="39" as="geometry"/>
                </mxCell>
                <mxCell id="7" value="&lt;span style=&quot;font-size: 20px&quot;&gt;标题&lt;/span&gt;" style="rounded=0;whiteSpace=wrap;html=1;labelBackgroundColor=#CCFFFF;fontSize=25;fontColor=#000000;fillColor=#CCFFFF;" vertex="1" parent="1">
                    <mxGeometry x="144" y="550.5" width="95" height="39" as="geometry"/>
                </mxCell>
                <mxCell id="8" value="&lt;span style=&quot;font-size: 20px&quot;&gt;内容&lt;/span&gt;" style="rounded=0;whiteSpace=wrap;html=1;labelBackgroundColor=#CCFFFF;fontSize=25;fontColor=#000000;fillColor=#CCFFFF;" vertex="1" parent="1">
                    <mxGeometry x="144" y="652" width="95" height="39" as="geometry"/>
                </mxCell>
                <mxCell id="9" value="" style="endArrow=none;html=1;fontSize=25;fontColor=#000000;strokeWidth=7;strokeColor=#99FFFF;exitX=0;exitY=0.5;exitDx=0;exitDy=0;entryX=1;entryY=0.5;entryDx=0;entryDy=0;" edge="1" parent="1" source="5" target="2">
                    <mxGeometry width="50" height="50" relative="1" as="geometry">
                        <mxPoint x="388" y="666" as="sourcePoint"/>
                        <mxPoint x="459" y="678" as="targetPoint"/>
                    </mxGeometry>
                </mxCell>
                <mxCell id="10" value="" style="endArrow=none;html=1;fontSize=25;fontColor=#000000;strokeWidth=7;strokeColor=#99FFFF;entryX=0;entryY=0.5;entryDx=0;entryDy=0;exitX=1;exitY=0.5;exitDx=0;exitDy=0;" edge="1" parent="1" target="6" source="2">
                    <mxGeometry width="50" height="50" relative="1" as="geometry">
                        <mxPoint x="437" y="628" as="sourcePoint"/>
                        <mxPoint x="388" y="552" as="targetPoint"/>
                    </mxGeometry>
                </mxCell>
                <mxCell id="11" value="" style="endArrow=none;html=1;fontSize=25;fontColor=#000000;strokeWidth=7;strokeColor=#99FFFF;entryX=0;entryY=0.5;entryDx=0;entryDy=0;exitX=1;exitY=0.5;exitDx=0;exitDy=0;" edge="1" parent="1" source="7" target="2">
                    <mxGeometry width="50" height="50" relative="1" as="geometry">
                        <mxPoint x="226" y="617" as="sourcePoint"/>
                        <mxPoint x="387.5" y="551" as="targetPoint"/>
                    </mxGeometry>
                </mxCell>
                <mxCell id="12" value="" style="endArrow=none;html=1;fontSize=25;fontColor=#000000;strokeWidth=7;strokeColor=#99FFFF;entryX=0;entryY=0.5;entryDx=0;entryDy=0;exitX=1;exitY=0.5;exitDx=0;exitDy=0;" edge="1" parent="1" target="2" source="8">
                    <mxGeometry width="50" height="50" relative="1" as="geometry">
                        <mxPoint x="246" y="649" as="sourcePoint"/>
                        <mxPoint x="302" y="618" as="targetPoint"/>
                    </mxGeometry>
                </mxCell>
            </root>
        </mxGraphModel>
    </diagram>
</mxfile>